<?xml version="1.0" encoding="UTF-8" standalone="no"?>
<!-- Created with Inkscape (http://www.inkscape.org/) -->

<svg
   xmlns:dc="http://purl.org/dc/elements/1.1/"
   xmlns:cc="http://creativecommons.org/ns#"
   xmlns:rdf="http://www.w3.org/1999/02/22-rdf-syntax-ns#"
   xmlns:svg="http://www.w3.org/2000/svg"
   xmlns="http://www.w3.org/2000/svg"
   xmlns:sodipodi="http://sodipodi.sourceforge.net/DTD/sodipodi-0.dtd"
   xmlns:inkscape="http://www.inkscape.org/namespaces/inkscape"
   width="250"
   height="250"
   viewBox="0 0 250 250"
   id="svg2"
   version="1.1"
   inkscape:version="0.91 r13725"
   sodipodi:docname="shit_logo.svg">
  <defs
     id="defs4" />
  <sodipodi:namedview
     id="base"
     pagecolor="#ffffff"
     bordercolor="#666666"
     borderopacity="1.0"
     inkscape:pageopacity="0.0"
     inkscape:pageshadow="2"
     inkscape:zoom="1.4"
     inkscape:cx="115"
     inkscape:cy="140.20305"
     inkscape:document-units="px"
     inkscape:current-layer="layer1"
     showgrid="false"
     units="px"
     inkscape:window-width="1366"
     inkscape:window-height="705"
     inkscape:window-x="0"
     inkscape:window-y="27"
     inkscape:window-maximized="1" />
  <metadata
     id="metadata7">
    <rdf:RDF>
      <cc:Work
         rdf:about="">
        <dc:format>image/svg+xml</dc:format>
        <dc:type
           rdf:resource="http://purl.org/dc/dcmitype/StillImage" />
        <dc:title></dc:title>
      </cc:Work>
    </rdf:RDF>
  </metadata>
  <g
     inkscape:label="Layer 1"
     inkscape:groupmode="layer"
     id="layer1"
     transform="translate(0,-802.36222)">
    <circle
       style="color:#000000;display:inline;overflow:visible;visibility:visible;opacity:1;fill:#ffffff;fill-opacity:1;fill-rule:nonzero;stroke:#000000;stroke-width:10;stroke-linecap:square;stroke-miterlimit:4;stroke-dasharray:none;stroke-opacity:1;marker:none;enable-background:accumulate"
       id="path3338"
       cx="127.85714"
       cy="925.93365"
       r="112.85715" />
    <g
       id="g4166"
       transform="translate(4.0406102,3.0304576)">
      <path
         inkscape:connector-curvature="0"
         d="m 66.862137,860.36193 c -1.582549,0.28262 -2.984197,1.06673 -4.329456,1.90939 -2.386581,1.5461 -4.610495,3.33733 -6.714462,5.24683 -1.965792,1.89608 -5.147236,6.37575 2.071984,-4.23833 0.08141,-0.11969 0.05419,0.31592 0.173291,0.3982 0.533436,0.36851 2.183286,0.78958 2.657563,0.93013 2.365906,0.6248 4.793458,1.05252 7.083717,1.94091 1.353192,0.52491 2.245339,1.01878 3.532832,1.67367 3.693816,1.84683 5.743117,4.90956 7.690092,8.40495 1.140669,2.4605 1.137525,5.06589 -0.250673,7.44584 -4.793545,8.21812 -2.846752,6.14322 -6.716142,9.71584 -3.709379,3.11281 -7.768203,4.64548 -12.322374,6.02339 -2.880376,0.94293 -5.497464,-0.15354 -8.188761,-1.10658 0,0 3.667052,-6.62953 3.667052,-6.62953 l 0,0 c 2.668842,0.94371 4.903777,1.86027 7.758294,0.88611 4.435641,-1.3866 8.473033,-3.01612 11.996507,-6.16808 2.890535,-2.9349 1.744299,-2.08294 -0.920656,3.20018 -0.296092,0.58698 0.696926,-1.12267 0.942693,-1.73244 0.72759,-1.80522 0.660771,-3.52024 -0.105426,-5.28945 -1.840818,-3.3919 -3.725435,-6.38875 -7.303487,-8.1689 -1.264275,-0.64146 -2.105572,-1.10915 -3.434252,-1.61843 -2.287165,-0.87665 -4.712614,-1.28515 -7.06609,-1.93124 -0.389427,-0.12057 -4.157316,-1.21791 -3.847489,-1.99588 1.583776,-3.97682 2.820485,-6.27197 5.520327,-8.72321 2.153363,-1.88943 4.404408,-3.68542 6.847393,-5.18938 1.429811,-0.81087 2.898501,-1.52306 4.530635,-1.81661 0,0 -3.273112,6.83262 -3.273112,6.83262 z"
         id="path4140"
         style="color:#000000;display:inline;overflow:visible;visibility:visible;opacity:1;fill:none;fill-opacity:1;fill-rule:nonzero;stroke:#000000;stroke-width:10;stroke-linecap:square;stroke-miterlimit:4;stroke-dasharray:none;stroke-opacity:1;marker:none;enable-background:accumulate" />
      <path
         inkscape:connector-curvature="0"
         d="m 87.68399,896.89428 c -0.144755,-5.60208 -0.277208,-11.20465 -0.330797,-16.80994 -0.04753,-5.94447 -0.07287,-11.8891 -0.09861,-17.8337 -0.01609,-3.70011 -0.267237,-7.39622 -0.590494,-11.08089 -0.133751,-1.59678 -0.358512,-3.18343 -0.589803,-4.76831 0,0 4.362478,-6.19409 4.362478,-6.19409 l 0,0 c 0.239757,1.59319 0.483283,3.18723 0.62457,4.79295 0.349475,3.69567 0.599871,7.40675 0.643753,11.11919 0.02548,5.94387 0.05054,11.88775 0.09558,17.83151 0.05016,5.61507 0.117657,11.22875 0.370414,16.83886 0,0 -4.487093,6.10442 -4.487093,6.10442 z"
         id="path4142"
         style="color:#000000;display:inline;overflow:visible;visibility:visible;opacity:1;fill:none;fill-opacity:1;fill-rule:nonzero;stroke:#000000;stroke-width:10;stroke-linecap:square;stroke-miterlimit:4;stroke-dasharray:none;stroke-opacity:1;marker:none;enable-background:accumulate" />
      <path
         inkscape:connector-curvature="0"
         d="m 117.88904,835.93786 c 0.0137,4.10219 0.17729,8.20253 0.29963,12.30257 0.14362,4.81684 0.23758,9.6348 0.3987,14.45111 0.16004,4.56715 0.36896,9.13245 0.55679,13.69853 0.16202,3.48912 0.25812,6.98074 0.39445,10.47079 0,0 -4.42796,6.14744 -4.42796,6.14744 l 0,0 c -0.15015,-3.48944 -0.22542,-6.98195 -0.39447,-10.4708 -0.18677,-4.56723 -0.39552,-9.13362 -0.56113,-13.70166 -0.16589,-4.81684 -0.26294,-9.63527 -0.40127,-14.45296 -0.12173,-4.10462 -0.28558,-8.20937 -0.31789,-12.31579 0,0 4.45315,-6.12923 4.45315,-6.12923 z"
         id="path4144"
         style="color:#000000;display:inline;overflow:visible;visibility:visible;opacity:1;fill:none;fill-opacity:1;fill-rule:nonzero;stroke:#000000;stroke-width:10;stroke-linecap:square;stroke-miterlimit:4;stroke-dasharray:none;stroke-opacity:1;marker:none;enable-background:accumulate" />
      <path
         inkscape:connector-curvature="0"
         d="m 94.845463,874.23063 c 1.517403,0.019 3.03322,-0.0152 4.549692,-0.0641 2.248775,-0.0751 4.497835,-0.14135 6.746895,-0.20742 1.39986,-0.0722 2.80721,-0.0261 4.20399,-0.14905 0.93218,-0.0812 1.85305,-0.24148 2.77675,-0.38536 1.21302,-0.23563 2.43943,-0.39405 3.66342,-0.56032 0,0 -3.34729,6.79659 -3.34729,6.79659 l 0,0 c -1.22015,0.16853 -2.43887,0.34655 -3.65103,0.5664 -0.94081,0.14619 -1.88223,0.29203 -2.83303,0.35748 -1.40933,0.079 -2.82209,0.0788 -4.23243,0.13474 -2.24869,0.0663 -4.49733,0.13376 -6.745766,0.208 -1.52343,0.0456 -3.046558,0.067 -4.570699,0.0534 0,0 3.439498,-6.75039 3.439498,-6.75039 z"
         id="path4146"
         style="color:#000000;display:inline;overflow:visible;visibility:visible;opacity:1;fill:none;fill-opacity:1;fill-rule:nonzero;stroke:#000000;stroke-width:10;stroke-linecap:square;stroke-miterlimit:4;stroke-dasharray:none;stroke-opacity:1;marker:none;enable-background:accumulate" />
      <path
         inkscape:connector-curvature="0"
         d="m 146.65057,860.53714 c 0.54419,2.68809 0.76974,5.43583 1.02595,8.16396 0.30304,3.6461 0.53925,7.29744 0.74622,10.95013 0.18058,3.30849 0.28751,6.62041 0.38671,9.93215 0.0558,2.40534 0.18753,4.80806 0.29854,7.21127 0,0 -4.42494,6.14963 -4.42494,6.14963 l 0,0 c -0.11012,-2.40582 -0.24775,-4.81089 -0.30861,-7.21854 -0.0965,-3.30777 -0.19841,-6.61577 -0.37072,-9.92063 -0.19909,-3.64738 -0.4374,-7.29266 -0.72402,-10.93426 -0.24285,-2.70495 -0.49145,-5.41658 -0.9308,-8.09724 0,0 4.30167,-6.23647 4.30167,-6.23647 z"
         id="path4148"
         style="color:#000000;display:inline;overflow:visible;visibility:visible;opacity:1;fill:none;fill-opacity:1;fill-rule:nonzero;stroke:#000000;stroke-width:10;stroke-linecap:square;stroke-miterlimit:4;stroke-dasharray:none;stroke-opacity:1;marker:none;enable-background:accumulate" />
      <path
         inkscape:connector-curvature="0"
         d="m 164.46048,862.9935 c 4.2459,-1.73271 8.66697,-2.95715 13.07044,-4.21159 4.79834,-1.36481 9.62487,-2.62663 14.46863,-3.81915 0,0 -3.27515,6.83165 -3.27515,6.83165 l 0,0 c -4.83551,1.19668 -9.65319,2.46474 -14.44379,3.831 -4.39533,1.25986 -8.78697,2.53554 -13.04069,4.22563 0,0 3.22056,-6.85754 3.22056,-6.85754 z"
         id="path4150"
         style="color:#000000;display:inline;overflow:visible;visibility:visible;opacity:1;fill:none;fill-opacity:1;fill-rule:nonzero;stroke:#000000;stroke-width:10;stroke-linecap:square;stroke-miterlimit:4;stroke-dasharray:none;stroke-opacity:1;marker:none;enable-background:accumulate" />
      <path
         inkscape:connector-curvature="0"
         d="m 175.4335,867.59537 c 0.90333,2.68026 0.91311,5.6581 1.06674,8.45436 0.15279,2.78093 0.231,5.21112 0.33524,7.99956 0.23463,6.8548 0.40782,13.71151 0.5805,20.56809 0.11187,4.12173 0.16554,8.24478 0.33606,12.36466 0.0883,1.88984 0.0369,0.97109 0.15166,2.75639 0,0 -4.41075,6.15981 -4.41075,6.15981 l 0,0 c -0.1326,-1.79516 -0.0755,-0.87258 -0.16778,-2.76796 -0.18255,-4.12228 -0.24005,-8.24776 -0.34693,-12.37251 -0.17171,-6.85482 -0.34424,-13.70975 -0.57337,-20.56294 -0.10875,-3.01214 -0.16912,-4.9945 -0.3205,-7.98896 -0.12878,-2.54746 -0.18984,-5.19644 -0.65804,-7.71663 -0.0373,-0.20079 -0.12388,-0.38921 -0.18582,-0.58381 0,0 4.19299,-6.31006 4.19299,-6.31006 z"
         id="path4154"
         style="color:#000000;display:inline;overflow:visible;visibility:visible;opacity:1;fill:none;fill-opacity:1;fill-rule:nonzero;stroke:#000000;stroke-width:10;stroke-linecap:square;stroke-miterlimit:4;stroke-dasharray:none;stroke-opacity:1;marker:none;enable-background:accumulate" />
    </g>
    <g
       id="g4175"
       transform="translate(5.555839,-2.5253814)">
      <path
         inkscape:connector-curvature="0"
         d="m 41.626032,938.52547 c 0.144557,4.78968 -1.246611,9.50514 -2.328226,14.13178 -0.633783,3.40897 -1.949633,6.75108 -2.111091,10.24231 -0.0733,1.58491 0.08909,2.06406 0.349655,3.57841 0.305217,0.97757 0.424306,1.85369 1.213332,2.59034 1.759954,1.64312 5.852073,0.71939 7.963289,0.45861 4.234757,-0.62691 8.438437,-1.44347 12.643861,-2.2394 2.474311,-0.53924 4.971892,-0.90336 7.493969,-1.11133 1.250964,-0.0898 0.639188,-0.0587 1.835149,-0.0968 0,0 -3.41305,6.7638 -3.41305,6.7638 l 0,0 c -1.169547,0.0546 -0.568344,0.018 -1.803423,0.1127 -2.4991,0.22491 -4.969819,0.62752 -7.425413,1.14508 -4.219666,0.79695 -8.437863,1.61674 -12.691236,2.21617 -3.145938,0.3526 -7.756317,1.36134 -9.610081,-2.09667 -0.255495,-0.4766 -0.361002,-1.0195 -0.541503,-1.52925 -0.323589,-1.50877 -0.535222,-2.11811 -0.526752,-3.70581 0.01863,-3.49283 1.40145,-6.90293 2.029867,-10.30338 0.518605,-2.19508 0.974781,-4.08124 1.453234,-6.28756 0.547265,-2.52363 1.162454,-5.10904 1.056173,-7.71029 0,0 4.412246,-6.15874 4.412246,-6.15874 z"
         id="path4156"
         style="color:#000000;display:inline;overflow:visible;visibility:visible;opacity:1;fill:none;fill-opacity:1;fill-rule:nonzero;stroke:#000000;stroke-width:10;stroke-linecap:square;stroke-miterlimit:4;stroke-dasharray:none;stroke-opacity:1;marker:none;enable-background:accumulate" />
      <path
         inkscape:connector-curvature="0"
         d="m 90.493569,939.56987 c -2.051015,-0.0225 -4.042017,0.62379 -5.975543,1.24077 -2.797089,0.89775 -5.159126,2.54869 -7.391272,4.40735 -1.505851,1.40874 -2.750948,3.07399 -3.819483,4.83276 -0.257096,0.42317 -0.985453,1.71784 -0.729617,1.2939 1.037752,-1.7196 2.05041,-3.45422 3.075615,-5.18133 -1.291494,2.83159 -1.449802,5.93445 -1.206761,8.98961 0.299577,2.91386 1.179388,5.43467 2.617452,7.96341 1.214233,2.02624 3.122912,3.52974 5.126413,4.72848 2.297602,1.14867 4.185284,1.38992 6.708337,1.40798 1.946151,0.0138 3.840213,-0.68925 5.581419,-1.51302 1.553793,-1.14474 2.649399,-2.76547 3.672547,-4.37328 1.851484,-3.26116 -1.370848,2.42367 -2.795253,4.74233 -0.181126,0.29484 0.289679,-0.62864 0.424412,-0.94736 0.385324,-0.91152 0.699776,-1.84586 1.007352,-2.7855 0.525831,-1.66921 0.893231,-3.3817 1.231098,-5.09698 0.317249,-1.60388 0.320456,-3.23627 0.220558,-4.86063 -0.05517,-1.42318 -0.45652,-2.76179 -1.009415,-4.06125 -0.642633,-1.32666 -1.3932,-2.5967 -2.150406,-3.86011 -0.732371,-1.27651 -1.596392,-2.46944 -2.419762,-3.68724 -0.72475,-1.17679 -1.724145,-2.13372 -2.704887,-3.09262 -0.61978,-0.56554 -1.294458,-1.06677 -1.952729,-1.58601 0,0 3.882388,-6.50577 3.882388,-6.50577 l 0,0 c 0.678845,0.53566 1.373353,1.05326 2.020729,1.62707 1.01748,0.98958 2.071473,1.96734 2.836347,3.17481 0.827276,1.22977 1.707481,2.4266 2.453308,3.70883 0.773351,1.28587 1.538734,2.5766 2.227414,3.9106 0.62198,1.33789 1.12688,2.72023 1.22198,4.20774 0.15777,1.65825 0.19319,3.32812 -0.0573,4.98063 -0.32151,1.73076 -0.67355,3.45811 -1.16031,5.15114 -1.35619,4.4287 -3.251722,8.05611 -6.031128,12.03755 -1.098869,1.6229 -2.30544,3.26249 -4.071376,4.20427 -1.868105,0.77881 -3.82475,1.45063 -5.877161,1.36974 -2.517107,-0.0609 -4.791981,-0.41333 -7.056262,-1.59759 -2.106037,-1.25846 -4.131436,-2.83309 -5.453106,-4.92897 -1.562344,-2.63949 -2.494416,-5.07727 -2.88595,-8.14597 -0.357777,-3.10577 -0.264854,-6.29136 0.870655,-9.24321 2.692271,-4.80809 4.999371,-10.07989 9.174474,-13.83305 2.321406,-1.83724 4.791457,-3.42996 7.655366,-4.28873 2.009048,-0.60098 4.059726,-1.20793 6.179355,-1.14074 0,0 -3.439498,6.75039 -3.439498,6.75039 z"
         id="path4158"
         style="color:#000000;display:inline;overflow:visible;visibility:visible;opacity:1;fill:none;fill-opacity:1;fill-rule:nonzero;stroke:#000000;stroke-width:10;stroke-linecap:square;stroke-miterlimit:4;stroke-dasharray:none;stroke-opacity:1;marker:none;enable-background:accumulate" />
      <path
         inkscape:connector-curvature="0"
         d="m 135.96681,939.01198 c -1.563,-0.33113 -3.09966,-0.76307 -4.66424,-1.08858 -2.78599,-0.65563 -5.62108,-0.96851 -8.47332,-1.12161 -2.49401,-10e-4 -4.45099,1.51502 -6.3318,2.9731 -0.77382,0.67662 -1.24465,1.02467 -1.88443,1.83934 -0.29182,0.37158 -1.02441,1.58673 -0.79311,1.17475 5.71567,-10.18032 2.62422,-4.4626 1.50795,-2.13318 -1.52446,3.55138 -2.31534,7.35082 -2.74704,11.17472 -0.16836,2.43967 -0.2469,4.91836 0.30644,7.31995 0.34428,1.49422 0.60683,1.97541 1.18133,3.3772 1.50252,3.10573 4.14313,5.39737 6.64596,7.68754 1.71091,1.53765 3.4309,3.06555 5.20492,4.53022 1.29253,1.1242 2.65884,2.15823 4.05702,3.14641 0.42469,0.22414 2.45596,1.85058 2.83436,1.77191 0.11925,-0.0248 0.13201,-0.20472 0.19802,-0.30709 0.81713,-2.89672 0.0974,-0.10726 -3.14922,4.88008 -0.19238,0.29553 0.25007,-0.65979 0.35775,-0.99559 0.37141,-1.15824 0.60866,-2.34878 0.85255,-3.53822 0.481,-2.38801 0.77349,-4.80582 0.97112,-7.2319 0.1461,-1.68454 0.21089,-3.37351 0.16994,-5.06372 -0.0183,-1.2334 -0.29359,-2.43576 -0.64203,-3.61227 -0.15166,-0.48474 -0.32167,-0.96272 -0.50138,-1.43758 0,0 4.21364,-6.29629 4.21364,-6.29629 l 0,0 c 0.2078,0.48131 0.39015,0.96952 0.54887,1.46962 0.41302,1.20354 0.73373,2.45479 0.80842,3.72875 0.1004,1.70511 0.0362,3.41476 -0.0974,5.11664 -0.17703,2.44263 -0.43395,4.87885 -0.89895,7.28586 -0.86195,4.49866 -2.0953,9.49123 -5.82191,12.56711 -0.23741,0.0147 -0.47707,0.0799 -0.71224,0.0442 -0.93696,-0.14226 -2.12179,-1.4478 -2.97911,-1.85511 -1.41496,-0.99677 -2.79995,-2.03812 -4.10587,-3.17546 -1.78578,-1.47034 -3.51658,-3.00495 -5.23784,-4.55008 -2.5814,-2.35441 -5.29546,-4.71199 -6.92071,-7.86239 -0.61708,-1.41215 -0.92126,-1.96171 -1.31713,-3.46993 -0.63893,-2.4342 -0.61701,-4.95404 -0.4831,-7.44721 0.36961,-3.86885 1.11836,-7.69911 2.54523,-11.32991 2.287,-4.95016 4.52837,-10.32475 8.88493,-13.76655 2.0438,-1.4946 4.17271,-2.86299 6.81232,-2.74584 2.88712,0.17105 5.7547,0.51597 8.57549,1.17539 1.55112,0.33455 3.07858,0.76495 4.63505,1.073 0,0 -3.55051,6.69268 -3.55051,6.69268 z"
         id="path4160"
         style="color:#000000;display:inline;overflow:visible;visibility:visible;opacity:1;fill:none;fill-opacity:1;fill-rule:nonzero;stroke:#000000;stroke-width:10;stroke-linecap:square;stroke-miterlimit:4;stroke-dasharray:none;stroke-opacity:1;marker:none;enable-background:accumulate" />
      <path
         inkscape:connector-curvature="0"
         d="m 171.24826,944.57937 c -1.63244,-0.0468 -3.25262,0.0677 -4.86881,0.28505 -1.14418,0.14824 -2.15993,0.52331 -3.15303,1.09553 -0.26222,0.15109 -0.54359,0.27593 -0.77941,0.46559 -0.25411,0.20437 -0.45152,0.47063 -0.67729,0.70595 -0.22246,0.28877 -0.46915,0.56039 -0.66738,0.8663 -0.22889,0.3532 -0.82862,1.46517 -0.61029,1.10536 3.85572,-6.35417 3.84023,-6.93105 2.46698,-3.79349 -0.23455,0.5359 -0.46113,1.07527 -0.68669,1.61502 -0.2349,0.56207 -0.4631,1.12692 -0.69466,1.69039 -1.53942,3.59423 -3.06343,7.2035 -3.99645,11.00744 -0.42726,2.40647 -0.77543,4.88333 -0.4562,7.32821 0.19486,1.49235 0.4053,1.93729 0.85717,3.36138 1.03841,3.03046 2.90774,5.56892 5.10635,7.8495 2.17625,2.15085 4.90833,3.50046 7.65183,4.7666 3.49745,1.48086 4.68593,1.37812 8.07549,-0.25128 2.58993,-1.49586 4.98496,-3.33328 7.27099,-5.25743 1.99055,-1.72789 3.72767,-3.68442 5.24561,-5.83239 0.31478,-0.47968 0.99245,-1.50001 1.29405,-2.00642 0.18998,-0.31899 0.73417,-1.29079 0.54287,-0.97259 -4.81705,8.01263 -3.55591,6.47754 -2.33972,3.17656 1.01997,-2.76519 0.78964,-5.75571 0.64198,-8.6443 -0.26435,-2.85765 -0.88284,-5.69322 -1.94073,-8.36197 -1.13771,-2.23184 -2.62153,-4.325 -4.46698,-6.02455 -1.62197,-1.3952 -3.49943,-2.38117 -5.47834,-3.15595 -1.57549,-0.59716 -3.18563,-1.09303 -4.81966,-1.5008 -1.24565,-0.3092 -2.50993,-0.55753 -3.7943,-0.60951 -0.7163,-0.0343 -1.44697,0.0974 -2.08581,0.4288 -0.37452,0.22251 -0.78411,0.37052 -1.19206,0.51745 0,0 3.1888,-6.87237 3.1888,-6.87237 l 0,0 c 0.39965,-0.16488 0.78295,-0.36618 1.18727,-0.51967 0.77658,-0.2303 1.56679,-0.36513 2.38086,-0.2843 1.32574,0.10036 2.63331,0.34507 3.92064,0.67634 1.66234,0.42467 3.30147,0.9349 4.90482,1.54759 2.05929,0.81763 4.01434,1.8525 5.71492,3.29356 1.94933,1.74466 3.49604,3.91391 4.74873,6.20395 1.16514,2.69626 1.79759,5.59614 2.15017,8.50706 0.18243,2.92673 0.47699,5.98714 -0.39897,8.82625 -0.0806,0.23143 -0.71559,2.08023 -0.82185,2.28022 -1.90204,3.58002 -3.79448,7.20843 -6.12595,10.53866 -1.5859,2.1203 -3.39127,4.05504 -5.4222,5.75987 -2.35024,1.90285 -4.75686,3.78883 -7.45527,5.17613 -0.50145,0.21276 -0.98931,0.46093 -1.50435,0.63828 -2.5995,0.8951 -4.71236,0.4009 -7.14948,-0.68201 -2.82558,-1.30822 -5.63309,-2.71097 -7.89111,-4.90771 -2.28715,-2.33512 -4.25966,-4.92978 -5.39217,-8.03419 -0.50159,-1.43613 -0.74998,-1.95223 -1.00338,-3.46311 -0.4159,-2.47974 -0.11123,-5.00581 0.26731,-7.46742 0.1341,-0.64296 0.23297,-1.29429 0.4023,-1.92889 0.842,-3.15569 2.2897,-6.13345 3.49541,-9.15501 2.04941,-5.04806 4.16735,-10.31228 7.81628,-14.41933 1.48678,-1.15867 3.13752,-1.87539 5.02658,-2.07673 1.66591,-0.2007 3.3437,-0.30167 5.02173,-0.2074 0,0 -3.5066,6.71578 -3.5066,6.71578 z"
         id="path4164"
         style="color:#000000;display:inline;overflow:visible;visibility:visible;opacity:1;fill:none;fill-opacity:1;fill-rule:nonzero;stroke:#000000;stroke-width:10;stroke-linecap:square;stroke-miterlimit:4;stroke-dasharray:none;stroke-opacity:1;marker:none;enable-background:accumulate" />
    </g>
  </g>
</svg>
